<svg width="70" height="32" viewBox="0 0 70 32" fill="none" xmlns="http://www.w3.org/2000/svg">
<rect width="70" height="32" rx="16" fill="#FF4E78"/>
<path d="M17.5831 22V10.3636H24.8786V11.875H19.3388V15.4205H24.4979V16.9261H19.3388V20.4886H24.9467V22H17.5831ZM27.0874 22V13.2727H28.7294V14.6591H28.8203C28.9794 14.1894 29.2597 13.8201 29.6612 13.5511C30.0665 13.2784 30.5249 13.142 31.0362 13.142C31.1423 13.142 31.2673 13.1458 31.4112 13.1534C31.5589 13.161 31.6745 13.1705 31.7578 13.1818V14.8068C31.6896 14.7879 31.5684 14.767 31.3942 14.7443C31.2199 14.7178 31.0457 14.7045 30.8714 14.7045C30.4699 14.7045 30.112 14.7898 29.7976 14.9602C29.487 15.1269 29.2408 15.3598 29.0589 15.6591C28.8771 15.9545 28.7862 16.2917 28.7862 16.6705V22H27.0874ZM33.228 22V13.2727H34.87V14.6591H34.9609C35.12 14.1894 35.4003 13.8201 35.8018 13.5511C36.2071 13.2784 36.6655 13.142 37.1768 13.142C37.2829 13.142 37.4079 13.1458 37.5518 13.1534C37.6996 13.161 37.8151 13.1705 37.8984 13.1818V14.8068C37.8303 14.7879 37.709 14.767 37.5348 14.7443C37.3606 14.7178 37.1863 14.7045 37.0121 14.7045C36.6106 14.7045 36.2526 14.7898 35.9382 14.9602C35.6276 15.1269 35.3814 15.3598 35.1996 15.6591C35.0178 15.9545 34.9268 16.2917 34.9268 16.6705V22H33.228ZM42.7322 22.1761C41.9141 22.1761 41.2 21.9886 40.5902 21.6136C39.9804 21.2386 39.5069 20.714 39.1697 20.0398C38.8326 19.3655 38.6641 18.5777 38.6641 17.6761C38.6641 16.7708 38.8326 15.9792 39.1697 15.3011C39.5069 14.6231 39.9804 14.0966 40.5902 13.7216C41.2 13.3466 41.9141 13.1591 42.7322 13.1591C43.5504 13.1591 44.2644 13.3466 44.8743 13.7216C45.4841 14.0966 45.9576 14.6231 46.2947 15.3011C46.6319 15.9792 46.8004 16.7708 46.8004 17.6761C46.8004 18.5777 46.6319 19.3655 46.2947 20.0398C45.9576 20.714 45.4841 21.2386 44.8743 21.6136C44.2644 21.9886 43.5504 22.1761 42.7322 22.1761ZM42.7379 20.75C43.2682 20.75 43.7076 20.6098 44.0561 20.3295C44.4046 20.0492 44.6622 19.6761 44.8288 19.2102C44.9993 18.7443 45.0845 18.2311 45.0845 17.6705C45.0845 17.1136 44.9993 16.6023 44.8288 16.1364C44.6622 15.6667 44.4046 15.2898 44.0561 15.0057C43.7076 14.7216 43.2682 14.5795 42.7379 14.5795C42.2038 14.5795 41.7607 14.7216 41.4084 15.0057C41.0599 15.2898 40.8004 15.6667 40.63 16.1364C40.4633 16.6023 40.38 17.1136 40.38 17.6705C40.38 18.2311 40.4633 18.7443 40.63 19.2102C40.8004 19.6761 41.0599 20.0492 41.4084 20.3295C41.7607 20.6098 42.2038 20.75 42.7379 20.75ZM48.6967 22V13.2727H50.3388V14.6591H50.4297C50.5888 14.1894 50.8691 13.8201 51.2706 13.5511C51.6759 13.2784 52.1342 13.142 52.6456 13.142C52.7517 13.142 52.8767 13.1458 53.0206 13.1534C53.1683 13.161 53.2839 13.1705 53.3672 13.1818V14.8068C53.299 14.7879 53.1778 14.767 53.0036 14.7443C52.8293 14.7178 52.6551 14.7045 52.4808 14.7045C52.0793 14.7045 51.7214 14.7898 51.407 14.9602C51.0964 15.1269 50.8501 15.3598 50.6683 15.6591C50.4865 15.9545 50.3956 16.2917 50.3956 16.6705V22H48.6967Z" fill="white"/>
</svg>
